<?xml version="1.0" encoding="utf-8"?>
<!-- Designed by Vexels.com - 2018 All Rights Reserved - https://vexels.com/terms-and-conditions/  -->
<svg version="1.1" id="Layer_1" xmlns="http://www.w3.org/2000/svg" xmlns:xlink="http://www.w3.org/1999/xlink" x="0px" y="0px"
	 viewBox="0 0 1200 1200" enable-background="new 0 0 1200 1200" xml:space="preserve">
<g id="XMLID_1327_">
	<g id="XMLID_1570_">
		<g id="XMLID_949_">
			<path id="XMLID_254_" fill="#edededff" d="M1112.792,645.67c55.208-54.788,38.254-165.989-57.248-165.989l-251.388,0.21
				c9.575-53.116,23.496-141.446,22.866-149.61c-5.284-78.912-55.574-174.988-57.613-178.86
				c-9.21-17.163-55.626-40.295-102.2-30.248c-60.124,12.873-66.459,51.284-66.039,61.907c0,0,2.461,105.076,2.878,133.073
				c-28.835,63.162-128.208,229.569-158.243,242.232c-7.38-4.288-15.332-6.54-23.915-6.54H104.461
				c-27.002,0-48.665,21.664-48.665,48.667v438.676c1.832,23.704,22.082,42.125,45.789,42.125h285.14
				c25.171,0,45.789-20.461,45.789-45.789v-14.548c0,0,10.623-0.784,15.334,2.25c18.418,11.671,41.078,26.374,70.538,26.374h425.594
				c159.03,0,142.074-141.236,127.527-160.442c26.791-29.25,43.327-80.952,20.669-121.664
				C1109.757,748.915,1140.423,698.208,1112.792,645.67L1112.792,645.67z M376.94,1035.522H101.373V597.631H376.94V1035.522z
				 M1038.59,642.008l-2.46,10.831c73.208,20.828,34.172,105.285-18.367,110.781l-2.669,10.831
				c70.33,17.793,36.79,104.869-18.21,110.783l-2.617,10.832c57.404,9.419,43.539,107.327-43.379,107.327l-432.92,0.209
				c-30.456,0-58.243-34.955-80.744-34.955h-19.623V631.803c24.332-15.335,54.367-34.957,71.113-49.086
				c31.502-26.949,160.702-235.692,160.702-261.855c0-26.164-2.666-139.194-2.666-139.194s25.118-32.708,81.738-8.793
				c0,0,47.67,89.325,52.538,160.495c0,0-21.455,146.312-32.915,192.309h299.9C1121.792,525.889,1107.717,631.173,1038.59,642.008
				L1038.59,642.008z M1038.59,642.008"/>
		</g>
		<g id="XMLID_1046_">
			<path id="XMLID_255_" fill="#e8e9ebff" d="M386.728,1087.109H101.58c-26.862,0-49.519-20.857-51.558-47.475L50,600.511
				c0-30.033,24.424-54.47,54.457-54.47h317.435c8.361,0,16.416,1.943,23.972,5.772c29.852-18.715,123.214-173.648,152.362-236.887
				c-0.465-29.801-2.855-131.709-2.855-131.709c-0.079-2.04-1.235-52.334,70.625-67.713c48.895-10.564,97.689,12.994,108.519,33.176
				c2.174,4.13,52.94,101.229,58.298,181.218c0.703,9.187-13.243,96.227-21.729,144.188l244.455-0.203
				c40.773,0,72.358,19.909,86.655,54.621c16.031,38.909,6.786,86.893-22.375,118.24c23.881,50.001-0.294,98.289-20.618,121.638
				c20.233,40.801,5.561,90.688-20.608,121.497c7.941,16.687,14.127,61.233-5.348,100.403
				c-14.762,29.71-49.167,65.117-129.262,65.117H518.382c-30.6,0-53.915-14.767-72.631-26.639l-1.008-0.634
				c-1.121-0.725-3.66-1.184-6.422-1.366v8.763C438.32,1063.97,415.175,1087.109,386.728,1087.109z M104.457,557.642
				c-23.632,0-42.857,19.23-42.857,42.869v438.677c1.575,20.172,19.135,36.321,39.98,36.321h285.148
				c22.047,0,39.991-17.939,39.991-39.986v-19.933l5.369-0.396c2.107-0.164,12.847-0.736,18.897,3.154l0.974,0.617
				c17.458,11.063,39.187,24.833,66.422,24.833h425.603c58.694,0,99.796-20.29,118.874-58.677
				c19.258-38.734,10.523-83.868,4.021-92.461l-2.923-3.853l3.262-3.568c25.921-28.295,41.079-76.861,19.894-114.926l-2.072-3.716
				l2.922-3.093c2.107-2.226,51.219-55.2,19.702-115.136l-1.994-3.794l3.037-3.025c28.219-27.999,37.577-72.669,22.76-108.622
				c-7.297-17.718-26.873-47.444-75.927-47.444l-258.332,0.214l1.235-6.838c10.456-57.941,23.236-141.015,22.793-148.142
				c-5.2-77.607-54.854-172.585-56.961-176.594c-7.897-14.733-51.399-36.875-95.843-27.28
				c-62.422,13.362-61.527,54.271-61.459,56.01c0,0.091,2.458,105.205,2.877,133.211l0.024,1.302l-0.544,1.189
				c-27.439,60.101-127.915,231.105-161.266,245.174l-2.664,1.121l-2.502-1.449c-6.673-3.874-13.55-5.761-21.005-5.761H104.457z
				 M382.741,1041.324H95.575V591.833h287.165V1041.324z M107.176,1029.723H371.14V603.434H107.176V1029.723z M517.973,1009.404
				c-18.103,0-34.825-10.836-49.576-20.392c-11.566-7.493-22.487-14.569-31.177-14.569h-25.421V628.602l2.708-1.705
				c33.68-21.225,57.392-37.583,70.466-48.613c31.109-26.611,158.65-233.533,158.65-257.42c0-25.796-2.652-137.93-2.674-139.063
				l-0.045-2.044l1.246-1.626c1.132-1.484,28.559-35.98,88.591-10.598l1.893,0.799l0.974,1.812
				c1.971,3.693,48.305,91.248,53.211,162.831l0.045,0.623l-0.09,0.617c-0.84,5.698-19.69,133.907-31.336,185.663h292.568
				c37.737,0.107,53.075,24.996,54.855,48.249c2.458,32.084-19.531,70.488-59.454,78.894l-0.431,1.898
				c27.076,9.453,41.238,29.041,39.039,54.4c-2.696,31.094-29.488,60.134-59.556,65.488l-0.408,1.625
				c25.999,8.542,40.297,28.22,38.507,53.551c-1.971,28.078-24.901,60.541-58.968,66.443l-0.305,1.275
				c22.047,6.338,35.188,26.192,33.149,51.189c-2.685,32.951-32.242,66.302-83.551,66.302L517.973,1009.404z M423.399,962.842
				h13.821c12.112,0,24.437,7.982,37.488,16.433c14.058,9.109,28.594,18.529,43.265,18.529l432.911-0.21
				c46.346,0,69.796-28.843,71.983-55.641c1.313-16.077-5.642-36.242-29.546-40.168l-6.164-1.008l5.042-20.872l4.057-0.437
				c29.397-3.161,51.002-31.664,52.735-56.299c0.883-12.536-2.537-34.802-35.324-43.089l-5.585-1.416l5.019-20.393l4.056-0.419
				c26.068-2.73,50.968-28.679,53.302-55.534c1.834-21.196-10.922-36.791-35.912-43.899l-5.292-1.508l4.556-20.024l3.884-0.611
				c35.857-5.62,55.738-39.289,53.599-67.26c-1.791-23.434-17.979-37.464-43.3-37.537H740.688l1.789-7.206
				c10.887-43.678,31.189-180.69,32.718-191.124c-4.566-63.475-44.206-142.766-50.878-155.721
				c-44.024-17.803-66.331,0.816-71.712,6.373c0.374,16.143,2.617,113.186,2.617,137.063c0,30.407-131.969,239.94-162.74,266.262
				c-13.345,11.255-35.946,26.923-69.084,47.875V962.842z"/>
		</g>
	</g>
</g>
</svg>
